<svg id="Capa_1" enable-background="new 0 0 512 512" height="512" viewBox="0 0 512 512" width="512" xmlns="http://www.w3.org/2000/svg"><g><g><g>
<g fill="#35b8be"><path d="m476.34 220.341h-11.836c-16.999-99.708-104.027-175.852-208.504-175.852s-191.505 76.144-208.504 175.852h-11.836c-19.663 0-35.66 15.997-35.66 35.659s15.997 35.659 35.66 35.659h11.836c16.999 99.708 104.027 175.852 208.504 175.852s191.505-76.144 208.504-175.852h11.836c19.663 0 35.66-15.997 35.66-35.659s-15.997-35.659-35.66-35.659zm-440.68 51.318c-8.635 0-15.66-7.024-15.66-15.659s7.025-15.659 15.66-15.659h9.403c-.38 5.171-.574 10.393-.574 15.659s.194 10.488.574 15.659zm220.34 175.852c-105.6 0-191.511-85.911-191.511-191.511s85.911-191.511 191.511-191.511 191.511 85.911 191.511 191.511-85.911 191.511-191.511 191.511zm220.34-175.852h-9.403c.38-5.171.574-10.393.574-15.659s-.194-10.488-.574-15.659h9.403c8.635 0 15.66 7.024 15.66 15.659s-7.025 15.659-15.66 15.659z"/><path d="m322.977 175.14h6.024c8.937 0 17.67-3.678 23.962-10.091 6.224-6.343 9.56-14.649 9.394-23.39-.336-17.765-15.07-32.217-32.842-32.217h-111.195c-55.265 0-100.227 44.962-100.227 100.227 0 55.266 44.961 100.228 100.227 100.228h82.637c16.487 0 30-12.696 30.765-28.903.026-.541.038-1.078.038-1.611 0-4.557-.933-8.9-2.617-12.849 8.887-.039 17.562-3.712 23.821-10.091 6.224-6.343 9.56-14.649 9.394-23.389-.336-17.765-15.07-32.218-32.842-32.218h-6.53c-7.078-.006-12.837-5.77-12.837-12.848-.001-7.079 5.758-12.842 12.828-12.848zm0 45.696h6.539c6.952 0 12.714 5.651 12.846 12.597.063 3.327-1.241 6.524-3.673 9.002-2.555 2.604-6.086 4.099-9.688 4.099h-30.088c-5.523 0-10 4.478-10 10s4.477 10 10 10c7.084 0 12.848 5.764 12.848 12.849 0 .221-.005.443-.016.668-.256 5.43-5.096 9.847-10.788 9.847h-82.637c-44.237 0-80.227-35.99-80.227-80.228s35.989-80.227 80.227-80.227h111.195c6.952 0 12.714 5.65 12.846 12.596.063 3.327-1.242 6.525-3.673 9.004-2.556 2.604-6.086 4.098-9.687 4.098h-6.033c-18.097.016-32.82 14.751-32.82 32.849 0 18.095 14.723 32.83 32.829 32.846z"/></g><g><ellipse clip-rule="evenodd" cx="217.797" cy="209.669" fill="#ffce00" fill-rule="evenodd" rx="41.561" ry="41.606"/>
</g></g></g><g><circle clip-rule="evenodd" cx="256" cy="376.021" fill="#ffce00" fill-rule="evenodd" r="36.766"/><g><circle clip-rule="evenodd" cx="316.234" cy="355.064" fill="#ffce00" fill-rule="evenodd" r="27.043"/></g><g><circle clip-rule="evenodd" cx="383.406" cy="292.896" fill="#ffce00" fill-rule="evenodd" r="24.446"/></g><g><circle clip-rule="evenodd" cx="166.128" cy="348.979" fill="#ffce00" fill-rule="evenodd" r="27.043"/></g></g></g></svg>