<svg id="Capa_1" enable-background="new 0 0 512 512" height="512" viewBox="0 0 512 512" width="512" xmlns="http://www.w3.org/2000/svg">
<g>
<g>
<path d="m114.354 235.17h85.511v177.702h-85.511z" fill="#35b8be"/>
</g>
<g>
<g>
<ellipse cx="361.723" cy="457.885" fill="#35b8be" rx="31.237" ry="37.931" transform="matrix(.796 -.606 .606 .796 -203.422 312.581)"/>
</g>
<g>
<ellipse cx="318.974" cy="362.702" fill="#35b8be" rx="31.237" ry="37.931" transform="matrix(.135 -.991 .991 .135 -83.322 630.012)"/></g><g><ellipse cx="418.009" cy="338.543" fill="#35b8be" rx="28.655" ry="34.795" transform="matrix(.135 -.991 .991 .135 26.336 707.237)"/></g><g fill="#020288"><path d="m221.175 157.648c-15.752 0-28.567-12.653-28.567-28.206v-67.396h.924c5.523 0 10-4.478 10-10v-42.046c0-5.522-4.477-10-10-10h-72.846c-5.523 0-10 4.478-10 10v42.046c0 5.522 4.477 10 10 10h.924v67.396c0 15.553-12.815 28.206-28.567 28.206-18.609 0-33.75 15.04-33.75 33.527v287.297c0 18.487 15.14 33.527 33.75 33.527h128.131c18.609 0 33.75-15.04 33.75-33.527v-287.296c.001-18.488-15.139-33.528-33.749-33.528zm-90.488-137.648h52.846v22.046h-52.846zm104.238 458.473c0 7.459-6.168 13.527-13.75 13.527h-128.131c-7.582 0-13.75-6.068-13.75-13.527v-287.297c0-7.459 6.168-13.527 13.75-13.527 26.78 0 48.567-21.625 48.567-48.206v-67.397h30.997v67.396c0 26.581 21.787 48.206 48.567 48.206 7.582 0 13.75 6.068 13.75 13.527z"/><path d="m439.928 184.757c-2.091-4.549-7.223-6.85-12.012-5.386-1.613.494-39.675 12.449-53.589 43.487-3.943 8.796-5.452 18.02-5.574 26.757-3.402-3.192-7.261-6.076-11.627-8.409-26.053-13.925-58.423-1.952-59.788-1.436-4.683 1.771-7.334 6.732-6.204 11.61.33 1.422 8.367 34.985 34.419 48.906 9.506 5.08 19.85 6.713 29.225 6.713 6.367 0 12.287-.754 17.19-1.692-2.968 48.134-26.506 93.083-66.156 123.259-4.395 3.345-5.246 9.619-1.901 14.014 1.968 2.586 4.949 3.945 7.965 3.945 2.111 0 4.239-.666 6.049-2.043 28.343-21.571 49.891-50.525 62.314-83.732 7.756-20.733 11.781-42.562 11.987-64.486 9.194-3.338 38.943-15.919 50.891-42.568 13.912-31.037-2.485-67.407-3.189-68.939zm-104.949 97.892c-11.136-5.951-17.804-18.176-21.278-26.67 8.999-1.835 22.865-3.084 33.999 2.866 11.127 5.946 17.792 18.157 21.269 26.65-9.016 1.824-22.918 3.071-33.99-2.846zm89.886-37.133c-6.711 14.97-22.393 24.32-32.356 28.971-3.143-10.565-6.601-28.571.067-43.446 6.718-14.984 22.421-24.338 32.382-28.984 3.161 10.534 6.623 28.477-.093 43.459z"/>
</g></g></g></svg>