<svg id="Capa_1" enable-background="new 0 0 512 512" height="512" viewBox="0 0 512 512" width="512" xmlns="http://www.w3.org/2000/svg"><g><g><g><path d="m66.872 190.092h378.255v73.716h-378.255z" fill="#35b8be"/></g><g fill="#35b8be"><path d="m352.779 190.092c-.629-11.679-3.603-25.214-12.677-34.288-19.031-19.031-57.687-11.231-57.687-11.231s-5.188 25.711 3.222 45.519z"/><path d="m420.196 190.092c8.41-19.808 3.222-45.519 3.222-45.519s-38.656-7.8-57.687 11.231c-9.074 9.074-12.048 22.609-12.677 34.288z"/></g></g><g><path d="m502 394.757h-98.387c31.059-21.016 51.515-56.571 51.515-96.814v-107.85c0-5.522-4.478-10-10-10h-247.265l-48.031-107.128c-11.057-24.657-40.108-35.724-64.77-24.669-24.657 11.057-35.724 40.112-24.669 64.77 5.355 11.945 15.042 21.09 27.275 25.749 9.897 3.769 20.498 4.238 30.511 1.445l17.859 39.833h-69.166c-5.522 0-10 4.478-10 10v107.85c0 40.243 20.455 75.798 51.515 96.814h-98.387c-5.522 0-10 4.478-10 10v12.398c0 28.031 22.805 50.836 50.836 50.836h410.328c28.031 0 50.836-22.805 50.836-50.836v-12.398c0-5.523-4.478-10-10-10zm-369.471-271.378c-1.132-2.524-3.258-4.467-5.874-5.366-2.613-.899-5.487-.674-7.931.62-.576.305-1.163.592-1.744.852-7.068 3.171-14.951 3.397-22.192.64s-12.975-8.17-16.145-15.24c-6.543-14.597.007-31.795 14.602-38.339s31.793.007 38.337 14.602l44.363 98.945h-17.988zm-55.657 174.563v-97.85h358.256v97.85c0 53.384-43.432 96.814-96.815 96.814h-164.625c-53.384.001-96.816-43.43-96.816-96.814zm415.128 119.213c0 17.003-13.833 30.836-30.836 30.836h-410.328c-17.003 0-30.836-13.833-30.836-30.836v-2.398h472z" fill="#020288"/></g></g></svg>